<svg id="Layer_1" data-name="Layer 1" xmlns="http://www.w3.org/2000/svg" viewBox="0 0 122.88 77.64"><defs><style>.cls-1{fill-rule:evenodd;}</style></defs><title>concert</title><path class="cls-1" d="M45.58,11.9a4.31,4.31,0,0,0-1.8,2.76A4.36,4.36,0,0,0,45,18.58a6.23,6.23,0,0,0,4-1.43,8.49,8.49,0,0,0,2.91-3.37s0,0,0-.08a3.72,3.72,0,0,0-.38-.67,4.3,4.3,0,0,0-6-1.13ZM62,.54h1.36V1c3.41.78,3.8,2.42,1.82,5,.21-2.56,0-3.11-1.82-3.22V9.33a2.22,2.22,0,0,1-2,1.86c-1.09.19-2-.34-2-1.18A2.15,2.15,0,0,1,62,8.22V.54Zm20.68,0H84V1c3.4.78,3.79,2.42,1.81,5,.22-2.56,0-3.11-1.81-3.22V9.33a2.22,2.22,0,0,1-2,1.86c-1.1.19-2-.34-2-1.18a2.15,2.15,0,0,1,2.57-1.79V.54ZM75.23,15.63a2.28,2.28,0,0,1,.45,0,2.48,2.48,0,0,1,.54.06v-7l-7.35,2.11V19c0,1.28-1.41,2.21-2.54,2.41-1.4.25-2.54-.44-2.54-1.53a2.86,2.86,0,0,1,2.54-2.41,3.17,3.17,0,0,1,.53-.05,3,3,0,0,1,.9.14V7.65l9.56-2.18V16.65c.11,1.19-1.1,2.09-2.1,2.26-1.17.2-2.12-.37-2.12-1.27a2.39,2.39,0,0,1,2.12-2ZM99.5,39.93a6,6,0,1,0,4.26,1.77,6,6,0,0,0-4.26-1.77Zm11.44,17.43-4.29-2.81c-1-.64-3.61-1-6.19-1-2.4,0-4.83.26-5.87.91l-4.33,2.83-.65.44a3.22,3.22,0,0,0-.37.28c-.13-.13-.31-.28-.53-.46L88,57c-.36-.28-.72-.58-1.09-.89s-.71-.62-1.08-.95l-1.06-1c-.33-.32-.65-.65-1-1l0,0a3.26,3.26,0,0,0-1.33-.81c-1-.62-3.61-1-6.17-1-2.41,0-4.83.26-5.88.91L66.05,55l-.65.43a2.66,2.66,0,0,0-.38.29c-.13-.13-.3-.28-.52-.46l-.72-.56c-.37-.28-.73-.58-1.09-.89s-.72-.62-1.08-1-.73-.68-1.06-1l-1-1,0,0a3.14,3.14,0,0,0-2.21-1,3.18,3.18,0,0,0-2.21.86l0,0a3.15,3.15,0,0,0-1,2.21A3.2,3.2,0,0,0,55,55.27l1.15,1.15c.39.39.79.76,1.17,1.12s.82.74,1.25,1.11.87.72,1.34,1.08l.65.51.08.06c1.64,1.27,2.47,1.92,4,2h0A4.32,4.32,0,0,0,66.8,62a15.09,15.09,0,0,0,2-1.21l-.37,7.09-.13.13a3.22,3.22,0,0,0-.32.41c-.41.58-.82,1.17-1.23,1.78l-.42.64h-17L49,62.29a31,31,0,0,0,0-5.19c-.88-7.88-5-9.8-10-12.15a45.57,45.57,0,0,1-5.15-2.68l2-9,.23.24A15.94,15.94,0,0,0,42.23,38a.24.24,0,0,0,.09,0c4.38,1.08,6.88.2,10.33-1l.6-.21h0l6.45-2.55a.57.57,0,0,0,.21-.13,5.83,5.83,0,0,0,2-4.06,4.44,4.44,0,0,0-.66-2.34,4.83,4.83,0,0,0-1.6-1.58,3.54,3.54,0,0,0-2.33-.51c-.74-1.77-2.94-5.75-4.1-7.87-.37-.69-.69-1.26-.9-1.67a4.37,4.37,0,0,0,0-1.35,10.57,10.57,0,0,1-2.83,3A8.78,8.78,0,0,1,46,19.26a4,4,0,0,0,1.1.41l1.08,1.27c1.31,1.55,3.74,4.67,5.15,6.17l-2.93,1.15-.44.17-.77.29a13.13,13.13,0,0,0-1.73.64c-.89.37-1.68.71-2.18.47a11.61,11.61,0,0,1-3.19-2.89c-2.57-2.9-5.89-6.62-13-7.08L27.3,19.7c-2.2-.21-3.68-.68-5.81.24l-8.65,5.15-6.53-4a4.08,4.08,0,1,0-4.26,7l8.62,5.31v0a4.08,4.08,0,0,0,4.2,0l5.44-3.24L17.43,40.54a7.29,7.29,0,0,0,.56,4.3,13.77,13.77,0,0,0,2.07,3.26c-1.34,4.43-2.38,8.8-4.26,14.22-.34,1-2.18,5.51-3.4,8.5H0v6.82H122.85V70.82H104.94l1-9.17c.7.45,1.48.92,2.17,1.41a13.75,13.75,0,0,0,2.09,1.25,4.33,4.33,0,0,0,2.17.36,4.4,4.4,0,0,0,2-.63,17.06,17.06,0,0,0,2-1.41l.73-.57c.47-.36.92-.72,1.34-1.08s.85-.74,1.25-1.11.78-.73,1.17-1.12.77-.76,1.15-1.15a3.18,3.18,0,0,0,0-4.43l0,0a3.19,3.19,0,0,0-2.24-.89,3.1,3.1,0,0,0-2.18.92l0,0c-.33.34-.66.68-1,1s-.68.66-1.06,1l-1.07,1c-.37.31-.73.6-1.1.89l-.72.56c-.22.17-.39.33-.53.46a1.91,1.91,0,0,0-.33-.27c-.25-.16-.49-.3-.71-.45ZM81.68,59.9c.36.33.73.66,1.12,1s.86.72,1.34,1.09l.65.5s.07.06.07.06c1.64,1.28,2.47,1.92,4,2.05h0A4.34,4.34,0,0,0,91,64.22,13.19,13.19,0,0,0,93,63l-.36,7.1-.13.13a4.12,4.12,0,0,0-.33.4l-.12.18H80.48l1.2-10.92ZM75.29,37.69a6,6,0,1,0,4.26,1.76,6,6,0,0,0-4.26-1.76ZM21.68,70.82H40.62c-.2-3.29-.82-5-.6-9.28.09-1.58.3-3.47-.37-4.93l-.07-.16c-.32-.68-.61-1.31-1-1.51a39.37,39.37,0,0,0-3.76-1.4C33,53,31,52.37,29.3,51.88L21.68,70.82ZM56.36,25.9l-4.53-8.4a9.14,9.14,0,0,1-3.21,2.19l5.7,7,2-.81ZM29.68.46a8.5,8.5,0,1,1-4.88,4.3A8.5,8.5,0,0,1,29.68.46Z"/></svg>