<svg id="Layer_1" data-name="Layer 1" xmlns="http://www.w3.org/2000/svg" viewBox="0 0 122.88 89.4"><defs><style>.cls-1{fill-rule:evenodd;}</style></defs><title>economy-grow</title><path class="cls-1" d="M79.78,79.77c0,5.31-8.23,9.63-18.37,9.63s-18.36-4.32-18.36-9.63a5.62,5.62,0,0,1,.84-2.88c2.34,3.91,9.3,6.75,17.52,6.75,5.44,0,14.47-1.61,17.53-6.75a5.55,5.55,0,0,1,.84,2.88ZM24.1,55l-.22,2.39-9-.79a8.21,8.21,0,0,1,1.54,3.25l-2.17-.19a6.72,6.72,0,0,0-1-2.13,4.34,4.34,0,0,0-1.87-1.68L11.57,54,24.1,55ZM36.21,79.91c0,5.23-8.11,9.49-18.1,9.49S0,85.14,0,79.91a5.47,5.47,0,0,1,.83-2.84c2.3,3.85,9.17,6.65,17.28,6.65,5.35,0,14.25-1.59,17.27-6.65a5.49,5.49,0,0,1,.83,2.84ZM18.38,51.58c8.08,0,14.6,2.65,14.6,5.83s-6.66,5.84-14.87,5.84S3.23,60.63,3.23,57.41s6.45-5.77,14.48-5.83Zm-.06-1.94c9.89,0,17.89,4.29,17.89,9.49s-8.11,9.49-18.1,9.49S0,64.37,0,59.13s8-9.45,17.9-9.49ZM36.21,69.71c0,5.23-8.11,9.49-18.1,9.49S0,74.94,0,69.71A5.27,5.27,0,0,1,.77,67C3,70.89,9.91,73.75,18.11,73.75c5.36,0,14.39-1.61,17.33-6.77a5.49,5.49,0,0,1,.77,2.73ZM7,47.29,40.32,13.06c7.4,7.25,14.57,16,21.89,23.24L88.91,9.48,80.31.89,107.44,0l-1.2,26.73-8.87-8.79c-5.92,6-19.92,19.22-25.84,25.14C64,50.57,60.46,50.71,53,43.22L40.32,29.14,24.8,47.25A51.23,51.23,0,0,0,7,47.29Zm103.5-10.86-.2,2.21L102,37.91a7.6,7.6,0,0,1,1.42,3l-2-.17a6.59,6.59,0,0,0-.9-2,4.12,4.12,0,0,0-1.73-1.55L99,35.43l11.56,1Zm12.27,33.74c0,5.24-8.11,9.5-18.11,9.5s-18.1-4.26-18.1-9.5a5.61,5.61,0,0,1,.82-2.84C89.7,71.19,96.56,74,104.67,74,110,74,118.93,72.4,122,67.33a5.52,5.52,0,0,1,.83,2.84Zm.1-9.88c0,5.24-8.11,9.49-18.1,9.49s-18.11-4.25-18.11-9.49a5.5,5.5,0,0,1,.83-2.84c2.3,3.86,9.17,6.65,17.28,6.65,5.35,0,14.25-1.58,17.27-6.65a5.49,5.49,0,0,1,.83,2.84ZM105.05,32c8.08,0,14.6,2.66,14.6,5.84s-6.66,5.83-14.87,5.83S89.9,41,89.9,37.8,96.35,32,104.38,32ZM105,30c9.89,0,17.89,4.3,17.89,9.5S114.77,49,104.78,49s-18.11-4.26-18.11-9.49,8-9.46,17.9-9.5Zm17.89,20.07c0,5.24-8.11,9.49-18.1,9.49s-18.11-4.25-18.11-9.49a5.24,5.24,0,0,1,.77-2.72c2.23,3.9,9.14,6.76,17.34,6.76,5.36,0,14.39-1.61,17.33-6.76a5.45,5.45,0,0,1,.77,2.72Zm-.1,29.82c0,5.23-8.11,9.49-18.11,9.49s-18.1-4.26-18.1-9.49a5.55,5.55,0,0,1,.82-2.84c2.31,3.85,9.17,6.65,17.28,6.65,5.36,0,14.26-1.59,17.28-6.65a5.49,5.49,0,0,1,.83,2.84Zm-54.73-26-.22,2.39-9-.79a8.21,8.21,0,0,1,1.54,3.25l-2.17-.19a6.67,6.67,0,0,0-1-2.13,4.36,4.36,0,0,0-1.88-1.68l.18-1.94,4.12.36a11.86,11.86,0,0,0,2.67.27h.34l5.4.47Zm1.44-2.82c4.22,1.05,7,2.9,7,5,0,3.27-6.76,5.92-15.1,5.92s-15.09-2.66-15.09-5.92c0-2.29,3.31-4.27,8.15-5.26-.63-.43-1.27-.9-1.91-1.43-5.67,1.64-9.51,4.8-9.51,8.43,0,5.32,8.22,9.63,18.36,9.63s18.37-4.31,18.37-9.63c0-3.39-3.35-6.38-8.41-8.09-.64.5-1.26.95-1.88,1.35ZM79.78,69c0,5.32-8.23,9.63-18.37,9.63S43.05,74.32,43.05,69a5.41,5.41,0,0,1,.77-2.76c2.27,4,9.28,6.87,17.59,6.87,5.44,0,14.61-1.64,17.6-6.87A5.63,5.63,0,0,1,79.78,69Z"/></svg>